<svg width="14" height="14" viewBox="0 0 14 14" fill="none" xmlns="http://www.w3.org/2000/svg">
<path d="M13.0176 6.99618C13.0176 10.7011 10.1685 13.7045 6.65392 13.7045C3.13937 13.7045 0.290283 10.7011 0.290283 6.99618C0.290283 3.29125 3.13937 0.287842 6.65392 0.287842C10.1685 0.287842 13.0176 3.29125 13.0176 6.99618ZM9.38282 6.04051C9.5095 5.14789 8.86472 4.66803 7.98307 4.34793L8.26908 3.13875L7.5708 2.95532L7.29236 4.13264C7.10879 4.08441 6.92024 4.03894 6.7329 3.99387L7.01334 2.80882L6.31544 2.6254L6.02926 3.83414C5.8773 3.79765 5.72814 3.7616 5.58337 3.72367L5.58416 3.71988L4.62115 3.46643L4.4354 4.25255C4.4354 4.25255 4.95349 4.37771 4.94256 4.38544C5.22539 4.45986 5.2765 4.65713 5.26793 4.81351L4.94215 6.19101C4.96165 6.19626 4.9869 6.20381 5.01474 6.21555C4.99147 6.20946 4.96661 6.20275 4.94095 6.19626L4.4843 8.12593C4.44969 8.2165 4.36198 8.35234 4.1643 8.30078C4.17125 8.31147 3.65675 8.16724 3.65675 8.16724L3.31008 9.00976L4.2188 9.24853C4.38785 9.29318 4.55353 9.33993 4.7166 9.38394L4.42762 10.6069L5.12511 10.7904L5.41129 9.58034C5.59626 9.63319 5.78177 9.68393 5.96778 9.73255L5.68257 10.9369L6.38085 11.1203L6.66983 9.89961C7.86055 10.1371 8.75595 10.0413 9.13281 8.90616C9.43652 7.99215 9.1177 7.46492 8.49121 7.12112C8.94744 7.01027 9.29113 6.69395 9.38282 6.04051ZM7.78736 8.39868C7.57157 9.31269 6.11157 8.81857 5.63823 8.69468L6.02169 7.07443C6.49501 7.19894 8.01289 7.44547 7.78736 8.39868ZM8.00334 6.02731C7.80646 6.85871 6.59126 6.4363 6.19707 6.33275L6.54471 4.86322C6.93892 4.96677 8.20839 5.16004 8.00334 6.02731Z" fill="#FFA000"/>
</svg>
