<svg width="14" height="11" viewBox="0 0 14 11" fill="none" xmlns="http://www.w3.org/2000/svg">
<path fill-rule="evenodd" clip-rule="evenodd" d="M7.00117 0C10.8675 0 14 3.13472 14 7.00095V10.0006C14 10.553 13.5522 11 13.0014 11C12.4498 11 11.9997 10.553 11.9997 10.0006V7.00095C11.9997 6.4479 11.5542 6.00006 11.0003 6.00006C10.4487 6.00006 10.0008 6.4479 10.0008 7.00095V10.0006C10.0008 10.553 9.55305 11 9.00147 11C8.44835 11 8.00055 10.553 8.00055 10.0006V7.00095C8.00055 6.4479 7.55271 6.00006 7.00117 6.00006C6.44729 6.00006 5.99945 6.4479 5.99945 7.00095V10.0006C5.99945 10.553 5.55165 11 5.00083 11C4.44925 11 4.00145 10.553 4.00145 10.0006V7.00095C4.00145 6.4479 3.5536 6.00006 2.99972 6.00006C2.44814 6.00006 2.00029 6.4479 2.00029 7.00095V10.0006C2.00029 10.553 1.55249 11 0.999382 11C0.447801 11 0 10.553 0 10.0006V7.00095C0 3.13472 3.13475 0 7.00117 0Z" fill="#AD00FF"/>
</svg>
